<svg version="1.1" preserveAspectRatio="none" xmlns="http://www.w3.org/2000/svg" width="500" height="500" viewBox="0 0 500 500"><rect width="100%" height="100%" fill="#070707" fill-opacity="1"/><svg viewBox="156.1104 423.3576 381.4307 288.275" width="333" height="251.6723876709452" x="83.5px" y="124.1638px" xmlns="http://www.w3.org/2000/svg" xmlns:xlink="http://www.w3.org/1999/xlink" preserveAspectRatio="none"><defs></defs><style>.companyName {fill:#F7DC5F;fill-opacity:1;}.icon1 {fill:#F7DC5F;fill-opacity:1;}.icon2 {fill:#8C7848;fill-opacity:1;}.icon3 {fill:#534538;fill-opacity:1;}.icon3-str {stroke:#534538;stroke-opacity:1;}</style><g opacity="1" transform="rotate(0 156.1104 631.6326)">
<svg width="381.4307" height="80" x="156.1104" y="631.6326" version="1.1" preserveAspectRatio="none" viewBox="-0.52 -33.2 207.88 43.60000000000001">
  <g transform="matrix(1 0 0 1 0 0)" class="companyName"><path id="id-D6z1nYkh9" d="M20.96-6.92L20.04-9.32L8.72-9.32Q6.84-5.08 6.84-3.44L6.84-3.44Q6.84-2.24 7.74-1.92Q8.64-1.60 10.44-1.60L10.44-1.60L10.44 0L-0.52 0L-0.52-1.60Q0.44-1.72 1.14-1.92Q1.84-2.12 2.38-2.48Q2.92-2.84 3.32-3.42Q3.72-4 4.08-4.84L4.08-4.84L14.60-31.20L17.56-31.20L27.12-7.84Q27.96-5.80 28.54-4.64Q29.12-3.48 29.78-2.86Q30.44-2.24 31.30-2Q32.16-1.76 33.52-1.64L33.52-1.64L33.52 0L18.40 0L18.40-1.64Q20.32-1.72 21.16-2.04Q22-2.36 22-3.32L22-3.32Q22-3.88 21.72-4.76Q21.44-5.64 20.96-6.92L20.96-6.92ZM14.40-23.84L9.64-11.72L19.16-11.72L14.56-23.84L14.40-23.84Z M52.92 0.40L52.92-2.56L52.76-2.56Q50 0.40 45.60 0.40L45.60 0.40Q43.32 0.40 41.42-0.40Q39.52-1.20 38.14-2.64Q36.76-4.08 36-6.06Q35.24-8.04 35.24-10.44L35.24-10.44Q35.24-12.84 36.02-14.88Q36.80-16.92 38.14-18.42Q39.48-19.92 41.34-20.76Q43.20-21.60 45.36-21.60L45.36-21.60Q47.36-21.60 48.90-21Q50.44-20.40 51.60-18.96L51.60-18.96L51.76-18.96L51.76-22.36Q51.76-24.72 51.70-26.42Q51.64-28.12 51.52-28.64L51.52-28.64Q51.32-29.48 50.30-29.86Q49.28-30.24 47.16-30.24L47.16-30.24L47.16-31.60L57.28-33.20L57.28-10.32Q57.28-7.32 57.34-5.70Q57.40-4.08 57.56-3.24L57.56-3.24Q57.64-2.72 57.80-2.40Q57.96-2.08 58.28-1.90Q58.60-1.72 59.14-1.66Q59.68-1.60 60.52-1.60L60.52-1.60L60.52-0.04L52.92 0.40ZM51.68-9.92L51.68-11.48Q51.68-13 51.36-14.30Q51.04-15.60 50.40-16.60L50.40-16.60Q49.68-17.76 48.56-18.36Q47.44-18.96 46.16-18.96L46.16-18.96Q43.80-18.96 42.56-16.80Q41.32-14.64 41.32-10.52L41.32-10.52Q41.32-6.36 42.56-4.12Q43.80-1.88 46.12-1.88L46.12-1.88Q47.44-1.88 48.64-2.56Q49.84-3.24 50.60-4.40L50.60-4.40Q51.16-5.28 51.42-6.58Q51.68-7.88 51.68-9.92L51.68-9.92Z M77.20-7.60L77.20-11.40Q73.84-9.88 72.14-8.58Q70.44-7.28 70.44-5.88L70.44-5.88Q70.44-4.72 71.08-4.04Q71.72-3.36 72.68-3.36L72.68-3.36Q73.64-3.36 74.48-3.70Q75.32-4.04 75.92-4.60Q76.52-5.16 76.86-5.94Q77.20-6.72 77.20-7.60L77.20-7.60ZM71.56-11.08L77.20-13.52L77.20-15.20Q77.20-17.52 76.38-18.58Q75.56-19.64 73.84-19.64L73.84-19.64Q72.68-19.64 72.08-19.02Q71.48-18.40 70.96-16.96L70.96-16.96Q70.60-15.96 69.94-15.40Q69.28-14.84 68.12-14.84L68.12-14.84Q67-14.84 66.40-15.52Q65.80-16.20 65.80-17.44L65.80-17.44Q65.80-19.36 67.90-20.48Q70-21.60 74.24-21.60L74.24-21.60Q78.72-21.60 80.64-19.98Q82.56-18.36 82.56-14.56L82.56-14.56L82.56-5.80Q82.56-2.40 83.92-2.40L83.92-2.40Q84.68-2.40 85.32-2.92L85.32-2.92L85.92-1.76Q85.36-0.76 84.18-0.18Q83 0.40 81.52 0.40L81.52 0.40Q79.68 0.40 78.72-0.72Q77.76-1.84 77.76-3.88L77.76-3.88L77.56-3.88Q76.40-1.80 74.56-0.72Q72.72 0.36 70.36 0.36L70.36 0.36Q67.84 0.36 66.32-1.06Q64.80-2.48 64.80-4.76L64.80-4.76Q64.80-6.52 66.36-8.06Q67.92-9.60 71.56-11.08L71.56-11.08Z M98.28-33.20L98.28-6.56Q98.28-4.96 98.40-4Q98.52-3.04 98.88-2.52Q99.24-2 99.92-1.82Q100.60-1.64 101.76-1.60L101.76-1.60L101.76 0L89.16 0L89.16-1.60Q90.28-1.64 90.98-1.86Q91.68-2.08 92.06-2.58Q92.44-3.08 92.58-3.98Q92.72-4.88 92.72-6.28L92.72-6.28L92.72-22.80Q92.72-25.12 92.64-26.62Q92.56-28.12 92.44-28.68L92.44-28.68Q92.24-29.68 91.54-30Q90.84-30.32 89-30.32L89-30.32L89-31.68L98.28-33.20Z M124.68-12.92L115.52 6.28Q115.08 7.16 114.42 7.92Q113.76 8.68 112.94 9.22Q112.12 9.76 111.24 10.08Q110.36 10.40 109.48 10.40L109.48 10.40Q108.16 10.40 107.36 9.76Q106.56 9.12 106.56 8.04L106.56 8.04Q106.56 7.04 107.26 6.48Q107.96 5.92 109.52 5.80L109.52 5.80Q113.08 5.52 114.12 3.56L114.12 3.56L115.20 1.48L108.12-16.04Q107.64-17.20 107.30-17.88Q106.96-18.56 106.56-18.94Q106.16-19.32 105.64-19.44Q105.12-19.56 104.36-19.60L104.36-19.60L104.36-21.20L116.48-21.20L116.48-19.60Q114.92-19.60 114.30-19.30Q113.68-19 113.68-18.20L113.68-18.20Q113.68-17.88 113.78-17.46Q113.88-17.04 114.04-16.60L114.04-16.60L118.12-4.92L118.28-4.92L121.72-12.72Q122.24-13.96 122.60-14.78Q122.96-15.60 123.14-16.18Q123.32-16.76 123.40-17.12Q123.48-17.48 123.48-17.84L123.48-17.84Q123.48-18.88 122.90-19.24Q122.32-19.60 120.56-19.60L120.56-19.60L120.56-21.20L130.20-21.20L130.20-19.60Q129.40-19.60 128.84-19.38Q128.28-19.16 127.70-18.48Q127.12-17.80 126.42-16.46Q125.72-15.12 124.68-12.92L124.68-12.92Z M135.80-19L132.88-19L132.88-20.80Q135.28-21.48 136.90-22.86Q138.52-24.24 139.32-26.04L139.32-26.04L141.36-26.04L141.36-21.20L145.96-21.20L145.96-19L141.36-19L141.36-6.72Q141.36-4.24 141.90-3.20Q142.44-2.16 143.72-2.16L143.72-2.16Q145.28-2.16 146.08-3.60L146.08-3.60L146.92-2.44Q145.80 0.40 141.64 0.40L141.64 0.40Q138.88 0.40 137.34-0.88Q135.80-2.16 135.80-4.48L135.80-4.48L135.80-19Z M159.44-21.60L159.44-6.56Q159.44-4.96 159.56-4Q159.68-3.04 160.04-2.52Q160.40-2 161.08-1.82Q161.76-1.64 162.92-1.60L162.92-1.60L162.92 0L150.32 0L150.32-1.60Q151.44-1.64 152.14-1.86Q152.84-2.08 153.22-2.58Q153.60-3.08 153.74-3.98Q153.88-4.88 153.88-6.28L153.88-6.28L153.88-11.20Q153.88-13.52 153.80-15.02Q153.72-16.52 153.60-17.08L153.60-17.08Q153.40-18.08 152.70-18.40Q152-18.72 150.16-18.72L150.16-18.72L150.16-20.08L159.44-21.60ZM153.56-30.08L153.56-30.08Q153.56-31.40 154.46-32.30Q155.36-33.20 156.64-33.20L156.64-33.20Q157.96-33.20 158.86-32.30Q159.76-31.40 159.76-30.08L159.76-30.08Q159.76-28.80 158.86-27.90Q157.96-27 156.64-27L156.64-27Q155.36-27 154.46-27.90Q153.56-28.80 153.56-30.08Z M185.68-4.84L186.72-3.32Q185.20-1.64 182.94-0.72Q180.68 0.20 178.04 0.20L178.04 0.20Q175.60 0.20 173.60-0.58Q171.60-1.36 170.16-2.76Q168.72-4.16 167.94-6.14Q167.16-8.12 167.16-10.52L167.16-10.52Q167.16-13 168-15.04Q168.84-17.08 170.36-18.54Q171.88-20 174-20.80Q176.12-21.60 178.68-21.60L178.68-21.60Q180.48-21.60 182.02-21.24Q183.56-20.88 184.66-20.24Q185.76-19.60 186.40-18.74Q187.04-17.88 187.04-16.88L187.04-16.88Q187.04-15.72 186.38-15.04Q185.72-14.36 184.60-14.36L184.60-14.36Q183.68-14.36 182.98-14.84Q182.28-15.32 181.60-16.40L181.60-16.40Q181-17.36 180.58-17.92Q180.16-18.48 179.80-18.78Q179.44-19.08 179.08-19.18Q178.72-19.28 178.20-19.28L178.20-19.28Q175.88-19.28 174.60-17.12Q173.32-14.96 173.32-11.08L173.32-11.08Q173.32-6.92 174.86-4.68Q176.40-2.44 179.28-2.44L179.28-2.44Q180.92-2.44 182.56-3.06Q184.20-3.68 185.68-4.84L185.68-4.84Z M194.44-1.40L193.56 0L192.32 0L192.32-7.28L194-7.28Q194.68-4.40 195.96-3.08Q197.24-1.76 199.28-1.76L199.28-1.76Q200.76-1.76 201.58-2.38Q202.40-3 202.40-4.08L202.40-4.08Q202.40-5.20 201.40-6.26Q200.40-7.32 198.16-8.52L198.16-8.52Q195.12-10.16 193.80-11.78Q192.48-13.40 192.48-15.44L192.48-15.44Q192.48-16.76 192.98-17.90Q193.48-19.04 194.34-19.88Q195.20-20.72 196.40-21.18Q197.60-21.64 199-21.64L199-21.64Q200.24-21.64 201.46-21.28Q202.68-20.92 203.60-20.28L203.60-20.28L204.32-21.24L205.36-21.24L205.36-15.20L203.80-15.20Q202.88-17.48 201.90-18.48Q200.92-19.48 199.52-19.48L199.52-19.48Q198.40-19.48 197.74-18.88Q197.08-18.28 197.08-17.28L197.08-17.28Q197.08-16.16 198.06-15.16Q199.04-14.16 201.32-12.96L201.32-12.96Q202.92-12.08 204.08-11.24Q205.24-10.40 205.96-9.54Q206.68-8.68 207.02-7.74Q207.36-6.80 207.36-5.72L207.36-5.72Q207.36-4.32 206.84-3.20Q206.32-2.08 205.36-1.28Q204.40-0.48 203.06-0.04Q201.72 0.40 200.08 0.40L200.08 0.40Q198.36 0.40 196.88-0.06Q195.40-0.52 194.44-1.40L194.44-1.40Z"/></g>
</svg>
</g><g opacity="1" transform="rotate(0 251.4681 423.3576)">
<svg width="190.7154" height="178.275" x="251.4681" y="423.3576" version="1.1" preserveAspectRatio="none" viewBox="0.47499990463256836 4.660769462585449 127.0250015258789 118.73924255371094">
  <g transform="matrix(1 0 0 1 0 0)" class="icon1"><g><path d="M43.1,65.2v4.8h-5.2c-0.4,0-0.8,0.3-0.8,0.8v4H32c-0.4,0-0.8,0.3-0.8,0.8v3.8h-5.2c-0.4,0-0.8,0.3-0.8,0.8v6.1   c0,0.4,0.3,0.8,0.8,0.8H32c0,0,0.1,0,0.1,0h5.8c0,0,0,0,0,0c0,0,0,0,0,0h5.8c0,0,0.1,0,0.1,0h5.9c0.4,0,0.8-0.3,0.8-0.8V65.2   c0-0.4-0.3-0.8-0.8-0.8h-5.9C43.4,64.4,43.1,64.7,43.1,65.2z M26.8,80.7h4.4v4.6h-4.4V80.7z M37.2,85.3h-4.4V80c0,0,0,0,0,0v-3.7   h4.4V85.3z M38.7,71.5h4.4v13.8h-4.4V71.5z M49,65.9v19.4h-4.4V70.7c0,0,0,0,0,0v-4.8H49z"></path><path d="M24.3,72.8c0.1,0.2,0.3,0.2,0.5,0.2c0.2,0,0.4-0.1,0.5-0.2l16.2-15.5l-0.7,3.8C40.8,61.6,41,62,41.4,62c0,0,0.1,0,0.1,0   c0.4,0,0.7-0.3,0.7-0.6l1.2-6.1c0-0.2,0-0.5-0.2-0.7c-0.2-0.2-0.4-0.3-0.6-0.2l-6.2,0.8c-0.4,0.1-0.7,0.4-0.7,0.8   c0.1,0.4,0.4,0.7,0.8,0.7l3.9-0.5L24.3,71.8C24,72,24,72.5,24.3,72.8z"></path><path d="M5.6,36.4c0.4,0,0.8-0.3,0.8-0.8v-13c0-0.4-0.3-0.8-0.8-0.8s-0.8,0.3-0.8,0.8v13C4.9,36.1,5.2,36.4,5.6,36.4z"></path><path d="M6.4,44.1v-4.2c0-0.4-0.3-0.8-0.8-0.8s-0.8,0.3-0.8,0.8v4.2c0,0.4,0.3,0.8,0.8,0.8S6.4,44.5,6.4,44.1z"></path><path d="M126.7,57.1c-0.4,0-0.8,0.3-0.8,0.8v13c0,0.4,0.3,0.8,0.8,0.8c0.4,0,0.8-0.3,0.8-0.8v-13C127.5,57.5,127.2,57.1,126.7,57.1   z"></path><path d="M126.7,74.4c-0.4,0-0.8,0.3-0.8,0.8v4.2c0,0.4,0.3,0.8,0.8,0.8c0.4,0,0.8-0.3,0.8-0.8v-4.2   C127.5,74.7,127.2,74.4,126.7,74.4z"></path><path d="M74.8,14.2c0.1,0.1,0.3,0.2,0.5,0.2c0.2,0,0.4-0.1,0.5-0.2c0.3-0.3,0.3-0.8,0-1.1l-1.6-1.6c-0.3-0.3-0.8-0.3-1.1,0   c-0.3,0.3-0.3,0.8,0,1.1L74.8,14.2z"></path><path d="M80,19.4c0.1,0.1,0.3,0.2,0.5,0.2c0.2,0,0.4-0.1,0.5-0.2c0.3-0.3,0.3-0.8,0-1.1l-1.6-1.6c-0.3-0.3-0.8-0.3-1.1,0   c-0.3,0.3-0.3,0.8,0,1.1L80,19.4z"></path><path d="M73.7,19.6c0.2,0,0.4-0.1,0.5-0.2l1.6-1.6c0.3-0.3,0.3-0.8,0-1.1c-0.3-0.3-0.8-0.3-1.1,0l-1.6,1.6c-0.3,0.3-0.3,0.8,0,1.1   C73.4,19.5,73.5,19.6,73.7,19.6z"></path><path d="M78.9,14.4c0.2,0,0.4-0.1,0.5-0.2l1.6-1.6c0.3-0.3,0.3-0.8,0-1.1c-0.3-0.3-0.8-0.3-1.1,0l-1.6,1.6c-0.3,0.3-0.3,0.8,0,1.1   C78.5,14.4,78.7,14.4,78.9,14.4z"></path><path d="M75.3,115.3c-0.3-0.3-0.8-0.3-1.1,0c-0.3,0.3-0.3,0.8,0,1.1l1.6,1.6c0.1,0.1,0.3,0.2,0.5,0.2c0.2,0,0.4-0.1,0.5-0.2   c0.3-0.3,0.3-0.8,0-1.1L75.3,115.3z"></path><path d="M80.5,120.5c-0.3-0.3-0.8-0.3-1.1,0c-0.3,0.3-0.3,0.8,0,1.1l1.6,1.6c0.1,0.1,0.3,0.2,0.5,0.2c0.2,0,0.4-0.1,0.5-0.2   c0.3-0.3,0.3-0.8,0-1.1L80.5,120.5z"></path><path d="M75.9,120.5l-1.6,1.6c-0.3,0.3-0.3,0.8,0,1.1c0.1,0.1,0.3,0.2,0.5,0.2c0.2,0,0.4-0.1,0.5-0.2l1.6-1.6   c0.3-0.3,0.3-0.8,0-1.1C76.6,120.2,76.1,120.2,75.9,120.5z"></path><path d="M81,115.3l-1.6,1.6c-0.3,0.3-0.3,0.8,0,1.1c0.1,0.1,0.3,0.2,0.5,0.2c0.2,0,0.4-0.1,0.5-0.2l1.6-1.6c0.3-0.3,0.3-0.8,0-1.1   C81.8,115,81.3,115,81,115.3z"></path><path d="M1.8,96.6c-0.3-0.3-0.8-0.3-1.1,0c-0.3,0.3-0.3,0.8,0,1.1l1.6,1.6c0.1,0.1,0.3,0.2,0.5,0.2c0.2,0,0.4-0.1,0.5-0.2   c0.3-0.3,0.3-0.8,0-1.1L1.8,96.6z"></path><path d="M8,104.7c0.2,0,0.4-0.1,0.5-0.2c0.3-0.3,0.3-0.8,0-1.1L7,101.8c-0.3-0.3-0.8-0.3-1.1,0c-0.3,0.3-0.3,0.8,0,1.1l1.6,1.6   C7.6,104.6,7.8,104.7,8,104.7z"></path><path d="M2.3,101.8l-1.6,1.6c-0.3,0.3-0.3,0.8,0,1.1c0.1,0.1,0.3,0.2,0.5,0.2c0.2,0,0.4-0.1,0.5-0.2l1.6-1.6c0.3-0.3,0.3-0.8,0-1.1   C3.1,101.5,2.6,101.5,2.3,101.8z"></path><path d="M5.9,99.3c0.1,0.1,0.3,0.2,0.5,0.2s0.4-0.1,0.5-0.2l1.6-1.6c0.3-0.3,0.3-0.8,0-1.1c-0.3-0.3-0.8-0.3-1.1,0l-1.6,1.6   C5.6,98.5,5.6,99,5.9,99.3z"></path><path d="M23.2,14.2c2.1,0,3.8-1.7,3.8-3.8c0-2.1-1.7-3.8-3.8-3.8c-2.1,0-3.8,1.7-3.8,3.8C19.4,12.5,21.1,14.2,23.2,14.2z M23.2,8.2   c1.3,0,2.3,1,2.3,2.3c0,1.3-1,2.3-2.3,2.3c-1.3,0-2.3-1-2.3-2.3C20.9,9.2,21.9,8.2,23.2,8.2z"></path><path d="M121,103.2c-2.1,0-3.8,1.7-3.8,3.8c0,2.1,1.7,3.8,3.8,3.8c2.1,0,3.8-1.7,3.8-3.8C124.8,104.9,123.1,103.2,121,103.2z    M121,109.2c-1.3,0-2.3-1-2.3-2.3c0-1.3,1-2.3,2.3-2.3c1.3,0,2.3,1,2.3,2.3C123.3,108.2,122.3,109.2,121,109.2z"></path><path d="M90.7,11.2h14c0.4,0,0.8-0.3,0.8-0.8s-0.3-0.8-0.8-0.8h-14c-0.4,0-0.8,0.3-0.8,0.8S90.2,11.2,90.7,11.2z"></path><path d="M109.3,11.2h4.5c0.4,0,0.8-0.3,0.8-0.8s-0.3-0.8-0.8-0.8h-4.5c-0.4,0-0.8,0.3-0.8,0.8S108.9,11.2,109.3,11.2z"></path><path d="M113.9,14.5h-9.8c-0.4,0-0.8,0.3-0.8,0.8c0,0.4,0.3,0.8,0.8,0.8h9.8c0.4,0,0.8-0.3,0.8-0.8   C114.6,14.8,114.3,14.5,113.9,14.5z"></path><path d="M96.7,14.5c-0.4,0-0.8,0.3-0.8,0.8c0,0.4,0.3,0.8,0.8,0.8h3.2c0.4,0,0.8-0.3,0.8-0.8c0-0.4-0.3-0.8-0.8-0.8H96.7z"></path><path d="M31.2,121.8h-14c-0.4,0-0.8,0.3-0.8,0.8c0,0.4,0.3,0.8,0.8,0.8h14c0.4,0,0.8-0.3,0.8-0.8C32,122.2,31.6,121.8,31.2,121.8z"></path><path d="M12.6,121.8H8c-0.4,0-0.8,0.3-0.8,0.8c0,0.4,0.3,0.8,0.8,0.8h4.5c0.4,0,0.8-0.3,0.8-0.8C13.3,122.2,13,121.8,12.6,121.8z"></path><path d="M7.3,117.8c0,0.4,0.3,0.8,0.8,0.8h9.8c0.4,0,0.8-0.3,0.8-0.8c0-0.4-0.3-0.8-0.8-0.8H8C7.6,117,7.3,117.4,7.3,117.8z"></path><path d="M25.2,118.5c0.4,0,0.8-0.3,0.8-0.8c0-0.4-0.3-0.8-0.8-0.8H22c-0.4,0-0.8,0.3-0.8,0.8c0,0.4,0.3,0.8,0.8,0.8H25.2z"></path><path d="M57.1,72.4c1.4-0.4,2.8-0.8,4.1-1.2c0.2-0.1,0.4-0.1,0.6,0c0.1,0.1,0.2,0.1,0.2,0.2l2.8,11.1c0,0.1,0,0.2-0.1,0.3   c-0.1,0.2-0.3,0.3-0.5,0.3c-2.1,0.4-4.1,0.8-6.1,1.3c-0.4,0.1-0.6,0.5-0.5,0.9c0.1,0.3,0.4,0.6,0.7,0.6c0.1,0,0.1,0,0.2,0   c2-0.5,4-0.9,6-1.3c0.6-0.1,1-0.4,1.4-0.8c0,0,0,0,0,0c0.3-0.1,1.4-0.2,2.1-0.1c0.2,0.1,0.4,0.1,0.6,0.2c0.9,0.3,1.9,0.6,3.6,0.6   c0.1,0,0.2,0,0.4,0c2.1,0,9.9-2.4,10.8-2.6c0.7-0.2,1.3-0.6,1.6-1.2c0.4-0.6,0.5-1.3,0.3-2c-0.1-0.4-0.3-0.8-0.6-1.1   c1-0.6,1.5-1.7,1.2-2.9c-0.1-0.4-0.3-0.8-0.6-1.1c0.4-0.2,0.7-0.5,0.9-0.9c0.4-0.6,0.5-1.3,0.3-2c-0.2-0.7-0.6-1.3-1.2-1.6   c-0.4-0.3-0.9-0.4-1.4-0.4c0.1-0.4,0.1-0.8,0-1.2c-0.2-0.7-0.6-1.3-1.2-1.6c-0.6-0.4-1.3-0.5-2-0.3l-2.8,0.7c0.1-0.4,0.1-0.8,0-1.1   c-0.2-0.7-0.6-1.3-1.2-1.6c-0.2-0.1-0.5-0.2-0.8-0.3l-1.3-5.2l2.4-0.6l16.7,4.1c0.3,0.1,0.6,0.1,0.9,0.1c0.3,0,0.7,0,1-0.1l2.9-0.7   c0.4-0.1,0.6-0.5,0.5-0.9l-0.2-0.6c0-0.1-0.1-0.2-0.2-0.3c-1.9-2.1-4-7.1-5.4-12.8c-1.3-5.5-1.8-10.6-1.2-13.4c0-0.1,0-0.2,0-0.3   L92.1,32c0-0.2-0.2-0.4-0.3-0.5c-0.2-0.1-0.4-0.1-0.6-0.1l-2.9,0.7c-0.6,0.2-1.2,0.5-1.7,0.9L73.7,44.4l-12,3   c-3.5,0.9-5.7,4.5-4.8,8.1c0.9,3.5,4.5,5.7,8,4.8l2.6-0.6l1.3,5.1c-1.4,0.6-2.5,1.8-3.1,3.2c-0.3,0.9-1.1,1.6-2.1,1.8L62.8,70   c-0.1,0-0.1-0.1-0.2-0.1c-0.5-0.3-1.2-0.3-1.8-0.1c-1.3,0.4-2.7,0.8-4.1,1.2c-0.4,0.1-0.6,0.5-0.5,0.9   C56.3,72.3,56.7,72.5,57.1,72.4z M64.5,58.8c-2.8,0.7-5.5-1-6.2-3.7c-0.7-2.8,1-5.6,3.7-6.2l12.2-3c0.1,0,0.2-0.1,0.3-0.2l13-11.5   c0.3-0.3,0.7-0.5,1.1-0.6l1.9-0.5c-0.4,3.1,0.1,8.1,1.4,13.2c1.4,5.7,3.4,10.6,5.4,13l-2.1,0.5c-0.4,0.1-0.8,0.1-1.2,0l-16.9-4.1   c-0.1,0-0.1,0-0.2,0c-0.1,0-0.1,0-0.2,0l-3.3,0.8c0,0-0.1,0-0.1,0L67.9,58c0,0,0,0,0,0L64.5,58.8z M73,58.3l1.2,4.9l-4.1,1l-1.2-5   L73,58.3z M64,71.2c1.4-0.4,2.6-1.4,3.1-2.8c0.5-1.3,1.6-2.3,3-2.6l4.8-1.2c0,0,0,0,0,0l0.1,0c0.3-0.1,0.6,0,0.9,0.1   c0.3,0.2,0.4,0.4,0.5,0.7c0.1,0.3,0,0.6-0.1,0.9c-0.2,0.3-0.4,0.4-0.7,0.5l-2.8,0.7c-0.4,0.1-0.6,0.5-0.5,0.9   c0.1,0.3,0.4,0.6,0.7,0.6c0.1,0,0.1,0,0.2,0l2.8-0.7c0.1,0,0.2-0.1,0.3-0.1c0,0,0.1,0,0.1,0l4.7-1.2c0.6-0.2,1.2,0.2,1.4,0.8   c0.2,0.6-0.2,1.2-0.8,1.4l-4.7,1.2c-0.4,0.1-0.6,0.5-0.5,0.9c0.1,0.3,0.4,0.6,0.7,0.6c0.1,0,0.1,0,0.2,0l1.7-0.4c0,0,0,0,0,0   l4.7-1.2c0.3-0.1,0.6,0,0.9,0.1c0.3,0.2,0.4,0.4,0.5,0.7c0.1,0.3,0,0.6-0.1,0.9c-0.2,0.3-0.4,0.4-0.7,0.5l-1.4,0.4c0,0,0,0-0.1,0   L78,73.9c-0.4,0.1-0.6,0.5-0.5,0.9c0.1,0.4,0.5,0.6,0.9,0.5l1.4-0.4c0,0,0,0,0.1,0l3.2-0.8c0.6-0.1,1.2,0.2,1.3,0.8   c0.2,0.6-0.2,1.2-0.8,1.4l-1.5,0.4l-4.3,1.1c-0.4,0.1-0.6,0.5-0.5,0.9c0.1,0.4,0.5,0.6,0.9,0.5l1.1-0.3c0,0,0,0,0,0l3.2-0.8   c0.3-0.1,0.6,0,0.8,0.1c0.2,0.1,0.4,0.4,0.5,0.7c0.1,0.3,0,0.6-0.1,0.9c-0.2,0.3-0.4,0.4-0.7,0.5c-2.4,0.7-8.8,2.6-10.4,2.6   c-1.7,0.1-2.6-0.2-3.5-0.5c-0.2-0.1-0.4-0.1-0.6-0.2c-0.7-0.2-1.5-0.1-2.1-0.1c0,0,0,0,0-0.1l-2.7-10.8L64,71.2z"></path><path d="M94.8,34.6c0.1,0,0.1,0,0.2,0l6.1-1.5c0.3-0.1,0.6-0.4,0.6-0.7c0-0.1,0-0.1,0-0.2c-0.1-0.4-0.5-0.6-0.9-0.5l-6.1,1.5   c-0.3,0.1-0.6,0.4-0.6,0.7c0,0.1,0,0.1,0,0.2C94.2,34.3,94.5,34.6,94.8,34.6z"></path><path d="M95.5,39.5c0,0.1,0,0.1,0,0.2c0.1,0.3,0.4,0.6,0.7,0.6c0.1,0,0.1,0,0.2,0l8.4-2.1c0.3-0.1,0.6-0.4,0.6-0.7   c0-0.1,0-0.1,0-0.2c-0.1-0.4-0.5-0.6-0.9-0.5l-8.4,2.1C95.7,38.9,95.5,39.2,95.5,39.5z"></path><path d="M97,45.3c0,0.1,0,0.1,0,0.2c0.1,0.3,0.4,0.6,0.7,0.6c0.1,0,0.1,0,0.2,0l9.1-2.3c0.3-0.1,0.6-0.4,0.6-0.7c0-0.1,0-0.1,0-0.2   c-0.1-0.4-0.5-0.6-0.9-0.5l-9.1,2.3C97.2,44.6,97,44.9,97,45.3z"></path><path d="M99,50.3c-0.3,0.1-0.6,0.4-0.6,0.7c0,0.1,0,0.1,0,0.2c0.1,0.3,0.4,0.6,0.7,0.6c0.1,0,0.1,0,0.2,0l8.4-2.1   c0.3-0.1,0.6-0.4,0.6-0.7c0-0.1,0-0.1,0-0.2c-0.1-0.4-0.5-0.6-0.9-0.5L99,50.3z"></path><path d="M106.5,54.5l-6.1,1.5c-0.3,0.1-0.6,0.4-0.6,0.7c0,0.1,0,0.1,0,0.2c0.1,0.3,0.4,0.6,0.7,0.6c0.1,0,0.1,0,0.2,0l6.1-1.5   c0.3-0.1,0.6-0.4,0.6-0.7c0-0.1,0-0.1,0-0.2C107.3,54.6,106.9,54.4,106.5,54.5z"></path><path d="M78.7,46.5c0.2,0,0.4-0.1,0.5-0.2l8.3-7.3c0.3-0.3,0.3-0.8,0.1-1.1c-0.3-0.3-0.8-0.3-1.1-0.1l-8.3,7.3   c-0.3,0.3-0.3,0.8-0.1,1.1C78.3,46.4,78.5,46.5,78.7,46.5z"></path><path d="M62.4,82.1c0.1,0,0.1,0,0.2,0c0.4-0.1,0.6-0.5,0.5-0.9l-0.5-1.9c-0.1-0.4-0.5-0.6-0.9-0.5c-0.4,0.1-0.6,0.5-0.5,0.9   l0.5,1.9C61.8,81.8,62.1,82.1,62.4,82.1z"></path><path d="M117.7,91.9c2.3,0,4.1-1.8,4.1-4.1V29.4c0-2.3-1.8-4.1-4.1-4.1H56.4c-0.2-0.7-0.4-1.4-0.7-2.2c-0.2-0.4-0.6-0.6-1-0.4   c-0.4,0.2-0.6,0.6-0.4,1c0.3,0.8,0.6,1.7,0.7,2.5c0.1,0.8,0.2,1.6,0.2,2.3c0,1.6-0.3,3.1-0.8,4.5c0,0,0,0,0,0c0,0,0,0,0,0   c-0.1,0.1-0.1,0.3-0.2,0.5c0,0.1,0,0.1-0.1,0.2c-0.2,0.4-0.4,0.9-0.7,1.3c-0.5,0.9-1.1,1.7-1.9,2.5c-0.1,0.1-0.1,0.1-0.2,0.2   c0,0-0.1,0-0.1,0.1c-0.2,0.2-0.5,0.4-0.7,0.6c-1,0.8-2.1,1.5-3.3,2c-1.5,0.6-3.1,0.9-4.8,1c-1.7,0-3.4-0.3-5-1   c-1.5-0.6-2.8-1.5-3.9-2.6c-0.1-0.1-0.1-0.1-0.2-0.2l-0.1-0.1c-1.2-1.2-2.1-2.6-2.7-4.1c0-0.1-0.1-0.2-0.1-0.3   c-0.5-1.4-0.8-2.9-0.8-4.5c0-0.8,0.1-1.6,0.2-2.4c0,0,0,0,0,0c0,0,0,0,0,0c0.2-0.9,0.4-1.8,0.8-2.6c0.5-1.2,1.1-2.2,1.9-3.2   c0.3-0.3,0.6-0.7,0.9-1c0.7-0.7,1.6-1.3,2.5-1.9c0.4-0.2,0.8-0.5,1.3-0.7c0,0,0,0,0,0c0,0,0,0,0,0c0.1,0,0.2-0.1,0.3-0.1   c1.5-0.6,3.2-0.9,4.8-1c1.7,0,3.4,0.3,5,1c1.4,0.6,2.6,1.4,3.7,2.4l-4,4c-0.6-0.5-1.2-0.9-1.9-1.2c-0.7-0.3-1.4-0.5-2.1-0.5   c0,0,0,0,0,0c-0.8-0.1-1.5,0-2.2,0.2c-0.4,0.1-0.8,0.2-1.1,0.4c-0.8,0.3-1.6,0.8-2.2,1.4c0,0,0,0-0.1,0.1c-0.4,0.4-0.7,0.8-1,1.2   c-0.2,0.4-0.4,0.7-0.6,1.1c0,0,0,0,0,0c0,0,0,0,0,0c-0.4,0.9-0.6,1.8-0.6,2.8c0,0.9,0.2,1.8,0.5,2.7c0.4,0.9,0.9,1.6,1.5,2.3   c0.1,0.1,0.3,0.3,0.4,0.3c0.6,0.5,1.3,1,2,1.3c0.9,0.4,1.8,0.6,2.7,0.6c1,0,1.9-0.2,2.8-0.5c0.4-0.2,0.9-0.4,1.2-0.6   c0.3-0.2,0.5-0.4,0.8-0.6c0,0,0,0,0,0c0.1-0.1,0.2-0.1,0.3-0.3c0.1-0.1,0.1-0.1,0.2-0.2c0.6-0.6,1-1.3,1.4-2.1   c0.1-0.4,0.3-0.7,0.4-1.2c0.1-0.5,0.2-1.1,0.2-1.6c0-0.2,0-0.4,0-0.6c0-0.4-0.4-0.7-0.8-0.7c-0.4,0-0.7,0.4-0.7,0.8   c0,0.2,0,0.3,0,0.5c0,0.4,0,0.9-0.1,1.3c-0.1,0.4-0.2,0.7-0.3,0.9c-0.3,0.6-0.7,1.2-1.2,1.8l-0.1,0.1c-0.1,0.1-0.1,0.1-0.2,0.1   c0,0,0,0,0,0c0,0,0,0,0,0c-0.2,0.2-0.4,0.4-0.7,0.5c-0.3,0.2-0.6,0.4-1,0.5c-0.7,0.3-1.4,0.4-2.1,0.4c-0.8,0-1.5-0.1-2.2-0.4   c-0.6-0.3-1.1-0.6-1.6-1c-0.1-0.1-0.2-0.1-0.2-0.2c-0.5-0.5-0.9-1.1-1.2-1.8c-0.3-0.7-0.4-1.4-0.4-2.1c0-0.8,0.1-1.5,0.4-2.2   c0.1-0.3,0.3-0.6,0.5-0.9c0.2-0.4,0.5-0.7,0.8-0.9c0,0,0.1-0.1,0.1-0.1c0.5-0.5,1.1-0.9,1.8-1.1c0.3-0.1,0.6-0.2,0.9-0.3   c0.4-0.1,0.8-0.1,1.2-0.1c0.2,0,0.3,0,0.5,0h0c0,0,0,0,0,0c0.6,0,1.2,0.2,1.7,0.4c0.5,0.2,1,0.5,1.4,0.9L42,28.4   c-0.3,0.3-0.3,0.8,0,1.1c0.1,0.1,0.3,0.2,0.5,0.2c0.2,0,0.4-0.1,0.5-0.2L57,15.6l3.2,0.6c0,0,0.1,0,0.1,0c0.2,0,0.4-0.1,0.5-0.2   l5.7-5.7c0.2-0.2,0.3-0.5,0.2-0.8c-0.1-0.3-0.3-0.5-0.6-0.5l-3.1-0.6l-0.6-3.1C62.4,5,62.2,4.8,62,4.7c-0.3-0.1-0.6,0-0.8,0.2   l-5.7,5.7c-0.2,0.2-0.3,0.4-0.2,0.7l0.6,3.2l-3.6,3.6C51,17,49.6,16.1,48,15.4c-1.8-0.7-3.7-1.2-5.6-1.1c-1.8,0-3.6,0.4-5.4,1.1   c-0.1,0.1-0.3,0.1-0.4,0.2c0,0,0,0,0,0c-0.5,0.2-1,0.5-1.4,0.7c-1,0.6-1.9,1.3-2.8,2.1c-0.4,0.4-0.7,0.8-1,1.1   c-0.9,1.1-1.6,2.3-2.1,3.6c-0.3,0.7-0.5,1.5-0.7,2.3H15.9c-2.3,0-4.1,1.8-4.1,4.1v58.4c0,2.3,1.8,4.1,4.1,4.1h6.5v5.3   c0,0.4,0.3,0.8,0.8,0.8h10.9v11.8H23.2c-0.4,0-0.8,0.3-0.8,0.8c0,0.4,0.3,0.8,0.8,0.8h11.6h6.5h51h6.5h11.6c0.4,0,0.8-0.3,0.8-0.8   c0-0.4-0.3-0.8-0.8-0.8H99.5V98h10.9c0.4,0,0.8-0.3,0.8-0.8v-5.3H117.7z M61.3,6.9l0.4,2.3c0.1,0.3,0.3,0.5,0.6,0.6l2.2,0.4   l-4.4,4.4l-2.7-0.5l-0.5-2.7L61.3,6.9z M120.3,29.4v58.4c0,1.4-1.2,2.6-2.6,2.6h-1.4V26.9h1.4C119.1,26.9,120.3,28,120.3,29.4z    M32.3,38.6L32.3,38.6c0.2,0.2,0.3,0.3,0.3,0.3c1.3,1.2,2.7,2.2,4.4,2.9c1.8,0.7,3.6,1.1,5.5,1.1c0,0,0.1,0,0.1,0   c1.9,0,3.7-0.4,5.4-1.1c1.4-0.6,2.6-1.3,3.7-2.2c0.3-0.2,0.5-0.4,0.8-0.7c0,0,0.1-0.1,0.2-0.1c0.1-0.1,0.2-0.2,0.2-0.2   c0.8-0.8,1.5-1.7,2.1-2.7c0.3-0.5,0.5-1,0.7-1.4c0.1-0.1,0.1-0.2,0.1-0.3c0.1-0.2,0.1-0.3,0.2-0.5c0,0,0,0,0,0   c0.6-1.6,0.9-3.3,0.9-5.1c0-0.5-0.1-1.1-0.1-1.7h58.1v63.6h-4.4H23.2h-4.4V26.9h9.5c-0.1,0.6-0.1,1.2-0.1,1.8c0,1.7,0.3,3.4,0.9,5   c0,0.1,0.1,0.3,0.2,0.4C30,35.7,31,37.3,32.3,38.6z M13.3,87.8V29.4c0-1.4,1.2-2.6,2.6-2.6h1.4v63.6h-1.4   C14.5,90.4,13.3,89.2,13.3,87.8z M35.6,109.8V98h5v11.8H35.6z M91.6,98v11.8H42.1V98H91.6z M98,109.8h-5V98h5V109.8z M109.7,96.5   H98.8h-6.5h-51h-6.5H24v-4.6h85.7V96.5z"></path></g></g>
</svg>
</g></svg></svg>